<svg class="railroad-diagram" width="691.5" height="80" viewBox="0 0 691.5 80">
<g transform="translate(.5 .5)">
<g>
<path d="M20 30v20m10 -20v20m-10 -10h20"></path>
</g>
<g>
<path d="M40 40h0"></path>
<path d="M526.5 40h0"></path>
<path d="M40 40a10 10 0 0 0 10 -10v0a10 10 0 0 1 10 -10"></path>
<g>
<path d="M60 20h446.5"></path>
</g>
<path d="M506.5 20a10 10 0 0 1 10 10v0a10 10 0 0 0 10 10"></path>
<path d="M40 40h20"></path>
<g>
<path d="M60 40h0"></path>
<path d="M506.5 40h0"></path>
<path d="M60 40h10"></path>
<g>
<path d="M70 40h0"></path>
<path d="M496.5 40h0"></path>
<g class="non-terminal ">
<path d="M70 40h0"></path>
<path d="M149.5 40h0"></path>
<rect x="70" y="29" width="79.5" height="22"></rect>
<text x="109.75" y="44">Comment</text>
</g>
<path d="M149.5 40h10"></path>
<path d="M159.5 40h10"></path>
<g class="non-terminal ">
<path d="M169.5 40h0"></path>
<path d="M266 40h0"></path>
<rect x="169.5" y="29" width="96.5" height="22"></rect>
<text x="217.75" y="44">Statement</text>
</g>
<path d="M266 40h10"></path>
<path d="M276 40h10"></path>
<g class="non-terminal ">
<path d="M286 40h0"></path>
<path d="M357 40h0"></path>
<rect x="286" y="29" width="71" height="22"></rect>
<text x="321.5" y="44">spaces</text>
</g>
<path d="M357 40h10"></path>
<path d="M367 40h10"></path>
<g class="terminal ">
<path d="M377 40h0"></path>
<path d="M405.5 40h0"></path>
<rect x="377" y="29" width="28.5" height="22" rx="10" ry="10"></rect>
<text x="391.25" y="44">;</text>
</g>
<path d="M405.5 40h10"></path>
<path d="M415.5 40h10"></path>
<g class="non-terminal ">
<path d="M425.5 40h0"></path>
<path d="M496.5 40h0"></path>
<rect x="425.5" y="29" width="71" height="22"></rect>
<text x="461" y="44">spaces</text>
</g>
</g>
<path d="M496.5 40h10"></path>
<path d="M70 40a10 10 0 0 0 -10 10v0a10 10 0 0 0 10 10"></path>
<g>
<path d="M70 60h426.5"></path>
</g>
<path d="M496.5 60a10 10 0 0 0 10 -10v0a10 10 0 0 0 -10 -10"></path>
</g>
<path d="M506.5 40h20"></path>
</g>
<path d="M526.5 40h10"></path>
<g class="non-terminal ">
<path d="M536.5 40h0"></path>
<path d="M641.5 40h0"></path>
<rect x="536.5" y="29" width="105" height="22"></rect>
<text x="589" y="44">Expression</text>
</g>
<path d="M641.5 40h10"></path>
<path d="M 651.5 40 h 20 m -10 -10 v 20 m 10 -20 v 20"></path>
</g>
</svg>
