<svg class="railroad-diagram" width="681" height="252" viewBox="0 0 681 252" xmlns="http://www.w3.org/2000/svg" xmlns:xlink="http://www.w3.org/1999/xlink">
<g transform="translate(.5 .5)">
<g>
<path d="M20 81v20m10 -20v20m-10 -10h20"></path>
</g>
<path d="M40 91h10"></path>
<g>
<path d="M50 91h0"></path>
<path d="M631 91h0"></path>
<path d="M50 91h10"></path>
<g>
<path d="M60 91h0"></path>
<path d="M621 91h0"></path>
<path d="M60 91h10"></path>
<g>
<path d="M70 91h0"></path>
<path d="M611 91h0"></path>
<g>
<path d="M70 91h0"></path>
<path d="M189.5 91h0"></path>
<path d="M70 91h20"></path>
<g>
<path d="M90 91h79.5"></path>
</g>
<path d="M169.5 91h20"></path>
<path d="M70 91a10 10 0 0 1 10 10v0a10 10 0 0 0 10 10"></path>
<g class="non-terminal ">
<path d="M90 111h0"></path>
<path d="M169.5 111h0"></path>
<rect x="90" y="100" width="79.5" height="22"></rect>
<text x="129.75" y="115">Comment</text>
</g>
<path d="M169.5 111a10 10 0 0 0 10 -10v0a10 10 0 0 1 10 -10"></path>
</g>
<g>
<path d="M189.5 91h0"></path>
<path d="M611 91h0"></path>
<path d="M189.5 91a10 10 0 0 0 10 -10v-10a10 10 0 0 1 10 -10"></path>
<g class="non-terminal ">
<path d="M209.5 61h125.5"></path>
<path d="M465.5 61h125.5"></path>
<rect x="335" y="50" width="130.5" height="22"></rect>
<text x="400.25" y="65">InputVariable</text>
</g>
<path d="M591 61a10 10 0 0 1 10 10v10a10 10 0 0 0 10 10"></path>
<path d="M189.5 91a10 10 0 0 0 10 -10v-40a10 10 0 0 1 10 -10"></path>
<g class="non-terminal ">
<path d="M209.5 31h146.75"></path>
<path d="M444.25 31h146.75"></path>
<rect x="356.25" y="20" width="88" height="22"></rect>
<text x="400.25" y="35">Variable</text>
</g>
<path d="M591 31a10 10 0 0 1 10 10v40a10 10 0 0 0 10 10"></path>
<path d="M189.5 91h20"></path>
<g class="non-terminal ">
<path d="M209.5 91h134"></path>
<path d="M457 91h134"></path>
<rect x="343.5" y="80" width="113.5" height="22"></rect>
<text x="400.25" y="95">Constructor</text>
</g>
<path d="M591 91h20"></path>
<path d="M189.5 91a10 10 0 0 1 10 10v10a10 10 0 0 0 10 10"></path>
<g>
<path d="M209.5 121h0"></path>
<path d="M591 121h0"></path>
<g class="terminal ">
<path d="M209.5 121h0"></path>
<path d="M238 121h0"></path>
<rect x="209.5" y="110" width="28.5" height="22" rx="10" ry="10"></rect>
<text x="223.75" y="125">(</text>
</g>
<path d="M238 121h10"></path>
<g>
<path d="M248 121h0"></path>
<path d="M359 121h0"></path>
<path d="M248 121h20"></path>
<g>
<path d="M268 121h71"></path>
</g>
<path d="M339 121h20"></path>
<path d="M248 121a10 10 0 0 1 10 10v0a10 10 0 0 0 10 10"></path>
<g class="non-terminal ">
<path d="M268 141h0"></path>
<path d="M339 141h0"></path>
<rect x="268" y="130" width="71" height="22"></rect>
<text x="303.5" y="145">Spaces</text>
</g>
<path d="M339 141a10 10 0 0 0 10 -10v0a10 10 0 0 1 10 -10"></path>
</g>
<path d="M359 121h10"></path>
<g class="non-terminal ">
<path d="M369 121h0"></path>
<path d="M431.5 121h0"></path>
<rect x="369" y="110" width="62.5" height="22"></rect>
<text x="400.25" y="125">Block</text>
</g>
<path d="M431.5 121h10"></path>
<g>
<path d="M441.5 121h0"></path>
<path d="M552.5 121h0"></path>
<path d="M441.5 121h20"></path>
<g>
<path d="M461.5 121h71"></path>
</g>
<path d="M532.5 121h20"></path>
<path d="M441.5 121a10 10 0 0 1 10 10v0a10 10 0 0 0 10 10"></path>
<g class="non-terminal ">
<path d="M461.5 141h0"></path>
<path d="M532.5 141h0"></path>
<rect x="461.5" y="130" width="71" height="22"></rect>
<text x="497" y="145">Spaces</text>
</g>
<path d="M532.5 141a10 10 0 0 0 10 -10v0a10 10 0 0 1 10 -10"></path>
</g>
<path d="M552.5 121h10"></path>
<g class="terminal ">
<path d="M562.5 121h0"></path>
<path d="M591 121h0"></path>
<rect x="562.5" y="110" width="28.5" height="22" rx="10" ry="10"></rect>
<text x="576.75" y="125">)</text>
</g>
</g>
<path d="M591 121a10 10 0 0 0 10 -10v-10a10 10 0 0 1 10 -10"></path>
</g>
</g>
<path d="M611 91h10"></path>
<path d="M70 91a10 10 0 0 0 -10 10v60a10 10 0 0 0 10 10"></path>
<g class="non-terminal ">
<path d="M70 171h235"></path>
<path d="M376 171h235"></path>
<rect x="305" y="160" width="71" height="22"></rect>
<text x="340.5" y="175">Spaces</text>
</g>
<path d="M611 171a10 10 0 0 0 10 -10v-60a10 10 0 0 0 -10 -10"></path>
</g>
<path d="M621 91h10"></path>
<path d="M60 91a10 10 0 0 0 -10 10v90a10 10 0 0 0 10 10"></path>
<g>
<path d="M60 201h160.25"></path>
<path d="M460.75 201h160.25"></path>
<g>
<path d="M220.25 201h0"></path>
<path d="M331.25 201h0"></path>
<path d="M220.25 201h20"></path>
<g>
<path d="M240.25 201h71"></path>
</g>
<path d="M311.25 201h20"></path>
<path d="M220.25 201a10 10 0 0 1 10 10v0a10 10 0 0 0 10 10"></path>
<g class="non-terminal ">
<path d="M240.25 221h0"></path>
<path d="M311.25 221h0"></path>
<rect x="240.25" y="210" width="71" height="22"></rect>
<text x="275.75" y="225">Spaces</text>
</g>
<path d="M311.25 221a10 10 0 0 0 10 -10v0a10 10 0 0 1 10 -10"></path>
</g>
<path d="M331.25 201h10"></path>
<g class="non-terminal ">
<path d="M341.25 201h0"></path>
<path d="M369.75 201h0"></path>
<rect x="341.25" y="190" width="28.5" height="22"></rect>
<text x="355.5" y="205">.</text>
</g>
<path d="M369.75 201h10"></path>
<path d="M379.75 201h10"></path>
<g class="non-terminal ">
<path d="M389.75 201h0"></path>
<path d="M460.75 201h0"></path>
<rect x="389.75" y="190" width="71" height="22"></rect>
<text x="425.25" y="205">Spaces</text>
</g>
</g>
<path d="M621 201a10 10 0 0 0 10 -10v-90a10 10 0 0 0 -10 -10"></path>
</g>
<path d="M631 91h10"></path>
<path d="M 641 91 h 20 m -10 -10 v 20 m 10 -20 v 20"></path>
</g>
<style>
	svg {
		background-color: hsl(30,20%,95%);
	}
	path {
		stroke-width: 3;
		stroke: black;
		fill: rgba(0,0,0,0);
	}
	text {
		font: bold 14px monospace;
		text-anchor: middle;
		white-space: pre;
	}
	text.diagram-text {
		font-size: 12px;
	}
	text.diagram-arrow {
		font-size: 16px;
	}
	text.label {
		text-anchor: start;
	}
	text.comment {
		font: italic 12px monospace;
	}
	g.non-terminal text {
		/&#42;font-style: italic;&#42;/
	}
	rect {
		stroke-width: 3;
		stroke: black;
		fill: hsl(120,100%,90%);
	}
	rect.group-box {
		stroke: gray;
		stroke-dasharray: 10 5;
		fill: none;
	}
	path.diagram-text {
		stroke-width: 3;
		stroke: black;
		fill: white;
		cursor: help;
	}
	g.diagram-text:hover path.diagram-text {
		fill: #eee;
	}</style>
</svg>
