<svg class="railroad-diagram" width="561.5" height="202" viewBox="0 0 561.5 202" xmlns="http://www.w3.org/2000/svg" xmlns:xlink="http://www.w3.org/1999/xlink">
<g transform="translate(.5 .5)">
<g>
<path d="M20 51v20m10 -20v20m-10 -10h20"></path>
</g>
<path d="M40 61h10"></path>
<g>
<path d="M50 61h0"></path>
<path d="M511.5 61h0"></path>
<path d="M50 61h10"></path>
<g>
<path d="M60 61h0"></path>
<path d="M501.5 61h0"></path>
<path d="M60 61h10"></path>
<g>
<path d="M70 61h0"></path>
<path d="M491.5 61h0"></path>
<path d="M70 61a10 10 0 0 0 10 -10v-10a10 10 0 0 1 10 -10"></path>
<g class="non-terminal ">
<path d="M90 31h146.75"></path>
<path d="M324.75 31h146.75"></path>
<rect x="236.75" y="20" width="88" height="22"></rect>
<text x="280.75" y="35">Variable</text>
</g>
<path d="M471.5 31a10 10 0 0 1 10 10v10a10 10 0 0 0 10 10"></path>
<path d="M70 61h20"></path>
<g class="non-terminal ">
<path d="M90 61h134"></path>
<path d="M337.5 61h134"></path>
<rect x="224" y="50" width="113.5" height="22"></rect>
<text x="280.75" y="65">Constructor</text>
</g>
<path d="M471.5 61h20"></path>
<path d="M70 61a10 10 0 0 1 10 10v10a10 10 0 0 0 10 10"></path>
<g>
<path d="M90 91h0"></path>
<path d="M471.5 91h0"></path>
<g class="terminal ">
<path d="M90 91h0"></path>
<path d="M118.5 91h0"></path>
<rect x="90" y="80" width="28.5" height="22" rx="10" ry="10"></rect>
<text x="104.25" y="95">(</text>
</g>
<path d="M118.5 91h10"></path>
<g>
<path d="M128.5 91h0"></path>
<path d="M239.5 91h0"></path>
<path d="M128.5 91h20"></path>
<g>
<path d="M148.5 91h71"></path>
</g>
<path d="M219.5 91h20"></path>
<path d="M128.5 91a10 10 0 0 1 10 10v0a10 10 0 0 0 10 10"></path>
<g class="non-terminal ">
<path d="M148.5 111h0"></path>
<path d="M219.5 111h0"></path>
<rect x="148.5" y="100" width="71" height="22"></rect>
<text x="184" y="115">Spaces</text>
</g>
<path d="M219.5 111a10 10 0 0 0 10 -10v0a10 10 0 0 1 10 -10"></path>
</g>
<path d="M239.5 91h10"></path>
<g class="non-terminal ">
<path d="M249.5 91h0"></path>
<path d="M312 91h0"></path>
<rect x="249.5" y="80" width="62.5" height="22"></rect>
<text x="280.75" y="95">Block</text>
</g>
<path d="M312 91h10"></path>
<g>
<path d="M322 91h0"></path>
<path d="M433 91h0"></path>
<path d="M322 91h20"></path>
<g>
<path d="M342 91h71"></path>
</g>
<path d="M413 91h20"></path>
<path d="M322 91a10 10 0 0 1 10 10v0a10 10 0 0 0 10 10"></path>
<g class="non-terminal ">
<path d="M342 111h0"></path>
<path d="M413 111h0"></path>
<rect x="342" y="100" width="71" height="22"></rect>
<text x="377.5" y="115">Spaces</text>
</g>
<path d="M413 111a10 10 0 0 0 10 -10v0a10 10 0 0 1 10 -10"></path>
</g>
<path d="M433 91h10"></path>
<g class="terminal ">
<path d="M443 91h0"></path>
<path d="M471.5 91h0"></path>
<rect x="443" y="80" width="28.5" height="22" rx="10" ry="10"></rect>
<text x="457.25" y="95">)</text>
</g>
</g>
<path d="M471.5 91a10 10 0 0 0 10 -10v-10a10 10 0 0 1 10 -10"></path>
</g>
<path d="M491.5 61h10"></path>
<path d="M70 61a10 10 0 0 0 -10 10v60a10 10 0 0 0 10 10"></path>
<g class="non-terminal ">
<path d="M70 141h175.25"></path>
<path d="M316.25 141h175.25"></path>
<rect x="245.25" y="130" width="71" height="22"></rect>
<text x="280.75" y="145">Spaces</text>
</g>
<path d="M491.5 141a10 10 0 0 0 10 -10v-60a10 10 0 0 0 -10 -10"></path>
</g>
<path d="M501.5 61h10"></path>
<path d="M60 61a10 10 0 0 0 -10 10v90a10 10 0 0 0 10 10"></path>
<g class="non-terminal ">
<path d="M60 171h206.5"></path>
<path d="M295 171h206.5"></path>
<rect x="266.5" y="160" width="28.5" height="22"></rect>
<text x="280.75" y="175">.</text>
</g>
<path d="M501.5 171a10 10 0 0 0 10 -10v-90a10 10 0 0 0 -10 -10"></path>
</g>
<path d="M511.5 61h10"></path>
<path d="M 521.5 61 h 20 m -10 -10 v 20 m 10 -20 v 20"></path>
</g>
<style>
	svg {
		background-color: hsl(30,20%,95%);
	}
	path {
		stroke-width: 3;
		stroke: black;
		fill: rgba(0,0,0,0);
	}
	text {
		font: bold 14px monospace;
		text-anchor: middle;
		white-space: pre;
	}
	text.diagram-text {
		font-size: 12px;
	}
	text.diagram-arrow {
		font-size: 16px;
	}
	text.label {
		text-anchor: start;
	}
	text.comment {
		font: italic 12px monospace;
	}
	g.non-terminal text {
		/&#42;font-style: italic;&#42;/
	}
	rect {
		stroke-width: 3;
		stroke: black;
		fill: hsl(120,100%,90%);
	}
	rect.group-box {
		stroke: gray;
		stroke-dasharray: 10 5;
		fill: none;
	}
	path.diagram-text {
		stroke-width: 3;
		stroke: black;
		fill: white;
		cursor: help;
	}
	g.diagram-text:hover path.diagram-text {
		fill: #eee;
	}</style>
</svg>
