<svg class="railroad-diagram" width="231" height="182" viewBox="0 0 231 182" xmlns="http://www.w3.org/2000/svg" xmlns:xlink="http://www.w3.org/1999/xlink">
<g transform="translate(.5 .5)">
<g>
<path d="M20 81v20m10 -20v20m-10 -10h20"></path>
</g>
<path d="M40 91h10"></path>
<g class="non-terminal ">
<path d="M50 91h0"></path>
<path d="M95.5 91h0"></path>
<rect x="50" y="80" width="45.5" height="22"></rect>
<text x="72.75" y="95">A-Z</text>
</g>
<path d="M95.5 91h10"></path>
<g>
<path d="M105.5 91h0"></path>
<path d="M191 91h0"></path>
<path d="M105.5 91a10 10 0 0 0 10 -10v-10a10 10 0 0 1 10 -10"></path>
<g class="non-terminal ">
<path d="M125.5 61h0"></path>
<path d="M171 61h0"></path>
<rect x="125.5" y="50" width="45.5" height="22"></rect>
<text x="148.25" y="65">A-Z</text>
</g>
<path d="M171 61a10 10 0 0 1 10 10v10a10 10 0 0 0 10 10"></path>
<path d="M105.5 91a10 10 0 0 0 10 -10v-40a10 10 0 0 1 10 -10"></path>
<g class="non-terminal ">
<path d="M125.5 31h0"></path>
<path d="M171 31h0"></path>
<rect x="125.5" y="20" width="45.5" height="22"></rect>
<text x="148.25" y="35">a-z</text>
</g>
<path d="M171 31a10 10 0 0 1 10 10v40a10 10 0 0 0 10 10"></path>
<path d="M105.5 91h20"></path>
<g class="non-terminal ">
<path d="M125.5 91h0"></path>
<path d="M171 91h0"></path>
<rect x="125.5" y="80" width="45.5" height="22"></rect>
<text x="148.25" y="95">0-9</text>
</g>
<path d="M171 91h20"></path>
<path d="M105.5 91a10 10 0 0 1 10 10v10a10 10 0 0 0 10 10"></path>
<g class="terminal ">
<path d="M125.5 121h8.5"></path>
<path d="M162.5 121h8.5"></path>
<rect x="134" y="110" width="28.5" height="22" rx="10" ry="10"></rect>
<text x="148.25" y="125">&#95;</text>
</g>
<path d="M171 121a10 10 0 0 0 10 -10v-10a10 10 0 0 1 10 -10"></path>
<path d="M105.5 91a10 10 0 0 1 10 10v40a10 10 0 0 0 10 10"></path>
<g class="terminal ">
<path d="M125.5 151h8.5"></path>
<path d="M162.5 151h8.5"></path>
<rect x="134" y="140" width="28.5" height="22" rx="10" ry="10"></rect>
<text x="148.25" y="155">:</text>
</g>
<path d="M171 151a10 10 0 0 0 10 -10v-40a10 10 0 0 1 10 -10"></path>
</g>
<path d="M 191 91 h 20 m -10 -10 v 20 m 10 -20 v 20"></path>
</g>
<style>
	svg {
		background-color: hsl(30,20%,95%);
	}
	path {
		stroke-width: 3;
		stroke: black;
		fill: rgba(0,0,0,0);
	}
	text {
		font: bold 14px monospace;
		text-anchor: middle;
		white-space: pre;
	}
	text.diagram-text {
		font-size: 12px;
	}
	text.diagram-arrow {
		font-size: 16px;
	}
	text.label {
		text-anchor: start;
	}
	text.comment {
		font: italic 12px monospace;
	}
	g.non-terminal text {
		/&#42;font-style: italic;&#42;/
	}
	rect {
		stroke-width: 3;
		stroke: black;
		fill: hsl(120,100%,90%);
	}
	rect.group-box {
		stroke: gray;
		stroke-dasharray: 10 5;
		fill: none;
	}
	path.diagram-text {
		stroke-width: 3;
		stroke: black;
		fill: white;
		cursor: help;
	}
	g.diagram-text:hover path.diagram-text {
		fill: #eee;
	}</style>
</svg>
