<svg class="railroad-diagram" width="740" height="71" viewBox="0 0 740 71" xmlns="http://www.w3.org/2000/svg" xmlns:xlink="http://www.w3.org/1999/xlink">
<g transform="translate(.5 .5)">
<g>
<path d="M20 30v20m10 -20v20m-10 -10h20"></path>
</g>
<path d="M40 40h10"></path>
<g class="terminal ">
<path d="M50 40h0"></path>
<path d="M95.5 40h0"></path>
<rect x="50" y="29" width="45.5" height="22" rx="10" ry="10"></rect>
<text x="72.75" y="44">let</text>
</g>
<path d="M95.5 40h10"></path>
<path d="M105.5 40h10"></path>
<g class="non-terminal ">
<path d="M115.5 40h0"></path>
<path d="M186.5 40h0"></path>
<rect x="115.5" y="29" width="71" height="22"></rect>
<text x="151" y="44">Spaces</text>
</g>
<path d="M186.5 40h10"></path>
<path d="M196.5 40h10"></path>
<g class="non-terminal ">
<path d="M206.5 40h0"></path>
<path d="M294.5 40h0"></path>
<rect x="206.5" y="29" width="88" height="22"></rect>
<text x="250.5" y="44">Variable</text>
</g>
<path d="M294.5 40h10"></path>
<g>
<path d="M304.5 40h0"></path>
<path d="M415.5 40h0"></path>
<path d="M304.5 40a10 10 0 0 0 10 -10v0a10 10 0 0 1 10 -10"></path>
<g>
<path d="M324.5 20h71"></path>
</g>
<path d="M395.5 20a10 10 0 0 1 10 10v0a10 10 0 0 0 10 10"></path>
<path d="M304.5 40h20"></path>
<g class="non-terminal ">
<path d="M324.5 40h0"></path>
<path d="M395.5 40h0"></path>
<rect x="324.5" y="29" width="71" height="22"></rect>
<text x="360" y="44">Spaces</text>
</g>
<path d="M395.5 40h20"></path>
</g>
<path d="M415.5 40h10"></path>
<g class="terminal ">
<path d="M425.5 40h0"></path>
<path d="M454 40h0"></path>
<rect x="425.5" y="29" width="28.5" height="22" rx="10" ry="10"></rect>
<text x="439.75" y="44">=</text>
</g>
<path d="M454 40h10"></path>
<g>
<path d="M464 40h0"></path>
<path d="M575 40h0"></path>
<path d="M464 40a10 10 0 0 0 10 -10v0a10 10 0 0 1 10 -10"></path>
<g>
<path d="M484 20h71"></path>
</g>
<path d="M555 20a10 10 0 0 1 10 10v0a10 10 0 0 0 10 10"></path>
<path d="M464 40h20"></path>
<g class="non-terminal ">
<path d="M484 40h0"></path>
<path d="M555 40h0"></path>
<rect x="484" y="29" width="71" height="22"></rect>
<text x="519.5" y="44">Spaces</text>
</g>
<path d="M555 40h20"></path>
</g>
<path d="M575 40h10"></path>
<g class="non-terminal ">
<path d="M585 40h0"></path>
<path d="M690 40h0"></path>
<rect x="585" y="29" width="105" height="22"></rect>
<text x="637.5" y="44">Expression</text>
</g>
<path d="M690 40h10"></path>
<path d="M 700 40 h 20 m -10 -10 v 20 m 10 -20 v 20"></path>
</g>
<style>
	svg {
		background-color: hsl(30,20%,95%);
	}
	path {
		stroke-width: 3;
		stroke: black;
		fill: rgba(0,0,0,0);
	}
	text {
		font: bold 14px monospace;
		text-anchor: middle;
		white-space: pre;
	}
	text.diagram-text {
		font-size: 12px;
	}
	text.diagram-arrow {
		font-size: 16px;
	}
	text.label {
		text-anchor: start;
	}
	text.comment {
		font: italic 12px monospace;
	}
	g.non-terminal text {
		/&#42;font-style: italic;&#42;/
	}
	rect {
		stroke-width: 3;
		stroke: black;
		fill: hsl(120,100%,90%);
	}
	rect.group-box {
		stroke: gray;
		stroke-dasharray: 10 5;
		fill: none;
	}
	path.diagram-text {
		stroke-width: 3;
		stroke: black;
		fill: white;
		cursor: help;
	}
	g.diagram-text:hover path.diagram-text {
		fill: #eee;
	}</style>
</svg>
