<svg class="railroad-diagram" width="564" height="91" viewBox="0 0 564 91" xmlns="http://www.w3.org/2000/svg" xmlns:xlink="http://www.w3.org/1999/xlink">
<g transform="translate(.5 .5)">
<g>
<path d="M20 30v20m10 -20v20m-10 -10h20"></path>
</g>
<path d="M40 40h10"></path>
<g class="terminal ">
<path d="M50 40h0"></path>
<path d="M78.5 40h0"></path>
<rect x="50" y="29" width="28.5" height="22" rx="10" ry="10"></rect>
<text x="64.25" y="44">&#91;</text>
</g>
<path d="M78.5 40h10"></path>
<g>
<path d="M88.5 40h0"></path>
<path d="M199.5 40h0"></path>
<path d="M88.5 40h20"></path>
<g>
<path d="M108.5 40h71"></path>
</g>
<path d="M179.5 40h20"></path>
<path d="M88.5 40a10 10 0 0 1 10 10v0a10 10 0 0 0 10 10"></path>
<g class="terminal ">
<path d="M108.5 60h0"></path>
<path d="M179.5 60h0"></path>
<rect x="108.5" y="49" width="71" height="22" rx="10" ry="10"></rect>
<text x="144" y="64">Spaces</text>
</g>
<path d="M179.5 60a10 10 0 0 0 10 -10v0a10 10 0 0 1 10 -10"></path>
</g>
<g>
<path d="M199.5 40h0"></path>
<path d="M364.5 40h0"></path>
<path d="M199.5 40a10 10 0 0 0 10 -10v0a10 10 0 0 1 10 -10"></path>
<g>
<path d="M219.5 20h125"></path>
</g>
<path d="M344.5 20a10 10 0 0 1 10 10v0a10 10 0 0 0 10 10"></path>
<path d="M199.5 40h20"></path>
<g>
<path d="M219.5 40h0"></path>
<path d="M344.5 40h0"></path>
<path d="M219.5 40h10"></path>
<g class="non-terminal ">
<path d="M229.5 40h0"></path>
<path d="M334.5 40h0"></path>
<rect x="229.5" y="29" width="105" height="22"></rect>
<text x="282" y="44">Expression</text>
</g>
<path d="M334.5 40h10"></path>
<path d="M229.5 40a10 10 0 0 0 -10 10v0a10 10 0 0 0 10 10"></path>
<g>
<path d="M229.5 60h105"></path>
</g>
<path d="M334.5 60a10 10 0 0 0 10 -10v0a10 10 0 0 0 -10 -10"></path>
</g>
<path d="M344.5 40h20"></path>
</g>
<g>
<path d="M364.5 40h0"></path>
<path d="M475.5 40h0"></path>
<path d="M364.5 40h20"></path>
<g>
<path d="M384.5 40h71"></path>
</g>
<path d="M455.5 40h20"></path>
<path d="M364.5 40a10 10 0 0 1 10 10v0a10 10 0 0 0 10 10"></path>
<g class="terminal ">
<path d="M384.5 60h0"></path>
<path d="M455.5 60h0"></path>
<rect x="384.5" y="49" width="71" height="22" rx="10" ry="10"></rect>
<text x="420" y="64">Spaces</text>
</g>
<path d="M455.5 60a10 10 0 0 0 10 -10v0a10 10 0 0 1 10 -10"></path>
</g>
<path d="M475.5 40h10"></path>
<g class="terminal ">
<path d="M485.5 40h0"></path>
<path d="M514 40h0"></path>
<rect x="485.5" y="29" width="28.5" height="22" rx="10" ry="10"></rect>
<text x="499.75" y="44">&#93;</text>
</g>
<path d="M514 40h10"></path>
<path d="M 524 40 h 20 m -10 -10 v 20 m 10 -20 v 20"></path>
</g>
<style>
	svg {
		background-color: hsl(30,20%,95%);
	}
	path {
		stroke-width: 3;
		stroke: black;
		fill: rgba(0,0,0,0);
	}
	text {
		font: bold 14px monospace;
		text-anchor: middle;
		white-space: pre;
	}
	text.diagram-text {
		font-size: 12px;
	}
	text.diagram-arrow {
		font-size: 16px;
	}
	text.label {
		text-anchor: start;
	}
	text.comment {
		font: italic 12px monospace;
	}
	g.non-terminal text {
		/&#42;font-style: italic;&#42;/
	}
	rect {
		stroke-width: 3;
		stroke: black;
		fill: hsl(120,100%,90%);
	}
	rect.group-box {
		stroke: gray;
		stroke-dasharray: 10 5;
		fill: none;
	}
	path.diagram-text {
		stroke-width: 3;
		stroke: black;
		fill: white;
		cursor: help;
	}
	g.diagram-text:hover path.diagram-text {
		fill: #eee;
	}</style>
</svg>
