<svg class="railroad-diagram" width="506" height="161" viewBox="0 0 506 161" xmlns="http://www.w3.org/2000/svg" xmlns:xlink="http://www.w3.org/1999/xlink">
<g transform="translate(.5 .5)">
<g>
<path d="M20 21v20m10 -20v20m-10 -10h20"></path>
</g>
<path d="M40 31h10"></path>
<g>
<path d="M50 31h0"></path>
<path d="M50 31h10"></path>
<g>
<path d="M60 31h10"></path>
<path d="M436 31h10"></path>
<g class="terminal ">
<path d="M70 31h0"></path>
<path d="M107 31h0"></path>
<rect x="70" y="20" width="37" height="22" rx="10" ry="10"></rect>
<text x="88.5" y="35">/&#42;</text>
</g>
<path d="M107 31h10"></path>
<path d="M117 31h10"></path>
<g class="non-terminal ">
<path d="M127 31h0"></path>
<path d="M436 31h0"></path>
<rect x="127" y="20" width="309" height="22"></rect>
<text x="281.5" y="35">String not containing "/&#42;" or "&#42;/"</text>
</g>
</g>
<path d="M446 31a10 10 0 0 1 10 10v0a10 10 0 0 1 -10 10h-386a10 10 0 0 0 -10 10v0a10 10 0 0 0 10 10"></path>
<g>
<path d="M60 71h95"></path>
<path d="M351 71h95"></path>
<path d="M155 71h20"></path>
<g>
<path d="M175 71h156"></path>
</g>
<path d="M331 71h20"></path>
<path d="M155 71a10 10 0 0 1 10 10v0a10 10 0 0 0 10 10"></path>
<g class="non-terminal ">
<path d="M175 91h0"></path>
<path d="M331 91h0"></path>
<rect x="175" y="80" width="156" height="22"></rect>
<text x="253" y="95">MultiLineComment</text>
</g>
<path d="M331 91a10 10 0 0 0 10 -10v0a10 10 0 0 1 10 -10"></path>
</g>
<path d="M446 71a10 10 0 0 1 10 10v19a10 10 0 0 1 -10 10h-386a10 10 0 0 0 -10 10v0a10 10 0 0 0 10 10"></path>
<g>
<path d="M60 130h10"></path>
<path d="M436 130h10"></path>
<g class="non-terminal ">
<path d="M70 130h0"></path>
<path d="M379 130h0"></path>
<rect x="70" y="119" width="309" height="22"></rect>
<text x="224.5" y="134">String not containing "/&#42;" or "&#42;/"</text>
</g>
<path d="M379 130h10"></path>
<path d="M389 130h10"></path>
<g class="terminal ">
<path d="M399 130h0"></path>
<path d="M436 130h0"></path>
<rect x="399" y="119" width="37" height="22" rx="10" ry="10"></rect>
<text x="417.5" y="134">&#42;/</text>
</g>
</g>
<path d="M446 130h10"></path>
<path d="M456 130h0"></path>
</g>
<path d="M456 130h10"></path>
<path d="M 466 130 h 20 m -10 -10 v 20 m 10 -20 v 20"></path>
</g>
<style>
	svg {
		background-color: hsl(30,20%,95%);
	}
	path {
		stroke-width: 3;
		stroke: black;
		fill: rgba(0,0,0,0);
	}
	text {
		font: bold 14px monospace;
		text-anchor: middle;
		white-space: pre;
	}
	text.diagram-text {
		font-size: 12px;
	}
	text.diagram-arrow {
		font-size: 16px;
	}
	text.label {
		text-anchor: start;
	}
	text.comment {
		font: italic 12px monospace;
	}
	g.non-terminal text {
		/&#42;font-style: italic;&#42;/
	}
	rect {
		stroke-width: 3;
		stroke: black;
		fill: hsl(120,100%,90%);
	}
	rect.group-box {
		stroke: gray;
		stroke-dasharray: 10 5;
		fill: none;
	}
	path.diagram-text {
		stroke-width: 3;
		stroke: black;
		fill: white;
		cursor: help;
	}
	g.diagram-text:hover path.diagram-text {
		fill: #eee;
	}</style>
</svg>
