<svg class="railroad-diagram" width="1048" height="82" viewBox="0 0 1048 82" xmlns="http://www.w3.org/2000/svg" xmlns:xlink="http://www.w3.org/1999/xlink">
<g transform="translate(.5 .5)">
<g>
<path d="M20 21v20m10 -20v20m-10 -10h20"></path>
</g>
<path d="M40 31h10"></path>
<g class="terminal ">
<path d="M50 31h0"></path>
<path d="M87 31h0"></path>
<rect x="50" y="20" width="37" height="22" rx="10" ry="10"></rect>
<text x="68.5" y="35">\&#42;</text>
</g>
<path d="M87 31h10"></path>
<path d="M97 31h10"></path>
<g class="non-terminal ">
<path d="M107 31h0"></path>
<path d="M416 31h0"></path>
<rect x="107" y="20" width="309" height="22"></rect>
<text x="261.5" y="35">String not containing "\&#42;" or "&#42;\"</text>
</g>
<path d="M416 31h10"></path>
<g>
<path d="M426 31h0"></path>
<path d="M622 31h0"></path>
<path d="M426 31h20"></path>
<g>
<path d="M446 31h156"></path>
</g>
<path d="M602 31h20"></path>
<path d="M426 31a10 10 0 0 1 10 10v0a10 10 0 0 0 10 10"></path>
<g class="non-terminal ">
<path d="M446 51h0"></path>
<path d="M602 51h0"></path>
<rect x="446" y="40" width="156" height="22"></rect>
<text x="524" y="55">MultiLineComment</text>
</g>
<path d="M602 51a10 10 0 0 0 10 -10v0a10 10 0 0 1 10 -10"></path>
</g>
<path d="M622 31h10"></path>
<g class="non-terminal ">
<path d="M632 31h0"></path>
<path d="M941 31h0"></path>
<rect x="632" y="20" width="309" height="22"></rect>
<text x="786.5" y="35">String not containing "\&#42;" or "&#42;\"</text>
</g>
<path d="M941 31h10"></path>
<path d="M951 31h10"></path>
<g class="terminal ">
<path d="M961 31h0"></path>
<path d="M998 31h0"></path>
<rect x="961" y="20" width="37" height="22" rx="10" ry="10"></rect>
<text x="979.5" y="35">&#42;\</text>
</g>
<path d="M998 31h10"></path>
<path d="M 1008 31 h 20 m -10 -10 v 20 m 10 -20 v 20"></path>
</g>
<style>
	svg {
		background-color: hsl(30,20%,95%);
	}
	path {
		stroke-width: 3;
		stroke: black;
		fill: rgba(0,0,0,0);
	}
	text {
		font: bold 14px monospace;
		text-anchor: middle;
		white-space: pre;
	}
	text.diagram-text {
		font-size: 12px;
	}
	text.diagram-arrow {
		font-size: 16px;
	}
	text.label {
		text-anchor: start;
	}
	text.comment {
		font: italic 12px monospace;
	}
	g.non-terminal text {
		/&#42;font-style: italic;&#42;/
	}
	rect {
		stroke-width: 3;
		stroke: black;
		fill: hsl(120,100%,90%);
	}
	rect.group-box {
		stroke: gray;
		stroke-dasharray: 10 5;
		fill: none;
	}
	path.diagram-text {
		stroke-width: 3;
		stroke: black;
		fill: white;
		cursor: help;
	}
	g.diagram-text:hover path.diagram-text {
		fill: #eee;
	}</style>
</svg>
