<svg class="railroad-diagram" width="942.5" height="141" viewBox="0 0 942.5 141" xmlns="http://www.w3.org/2000/svg" xmlns:xlink="http://www.w3.org/1999/xlink">
<g transform="translate(.5 .5)">
<g>
<path d="M20 30v20m10 -20v20m-10 -10h20"></path>
</g>
<path d="M40 40h10"></path>
<g class="terminal ">
<path d="M50 40h0"></path>
<path d="M78.5 40h0"></path>
<rect x="50" y="29" width="28.5" height="22" rx="10" ry="10"></rect>
<text x="64.25" y="44">{</text>
</g>
<path d="M78.5 40h10"></path>
<g>
<path d="M88.5 40h0"></path>
<path d="M199.5 40h0"></path>
<path d="M88.5 40h20"></path>
<g>
<path d="M108.5 40h71"></path>
</g>
<path d="M179.5 40h20"></path>
<path d="M88.5 40a10 10 0 0 1 10 10v0a10 10 0 0 0 10 10"></path>
<g class="terminal ">
<path d="M108.5 60h0"></path>
<path d="M179.5 60h0"></path>
<rect x="108.5" y="49" width="71" height="22" rx="10" ry="10"></rect>
<text x="144" y="64">Spaces</text>
</g>
<path d="M179.5 60a10 10 0 0 0 10 -10v0a10 10 0 0 1 10 -10"></path>
</g>
<g>
<path d="M199.5 40h0"></path>
<path d="M743 40h0"></path>
<path d="M199.5 40a10 10 0 0 0 10 -10v0a10 10 0 0 1 10 -10"></path>
<g>
<path d="M219.5 20h503.5"></path>
</g>
<path d="M723 20a10 10 0 0 1 10 10v0a10 10 0 0 0 10 10"></path>
<path d="M199.5 40h20"></path>
<g>
<path d="M219.5 40h0"></path>
<path d="M723 40h0"></path>
<path d="M219.5 40h10"></path>
<g>
<path d="M229.5 40h0"></path>
<path d="M713 40h0"></path>
<g class="non-terminal ">
<path d="M229.5 40h0"></path>
<path d="M317.5 40h0"></path>
<rect x="229.5" y="29" width="88" height="22"></rect>
<text x="273.5" y="44">Variable</text>
</g>
<path d="M317.5 40h10"></path>
<g>
<path d="M327.5 40h0"></path>
<path d="M438.5 40h0"></path>
<path d="M327.5 40h20"></path>
<g>
<path d="M347.5 40h71"></path>
</g>
<path d="M418.5 40h20"></path>
<path d="M327.5 40a10 10 0 0 1 10 10v0a10 10 0 0 0 10 10"></path>
<g class="terminal ">
<path d="M347.5 60h0"></path>
<path d="M418.5 60h0"></path>
<rect x="347.5" y="49" width="71" height="22" rx="10" ry="10"></rect>
<text x="383" y="64">Spaces</text>
</g>
<path d="M418.5 60a10 10 0 0 0 10 -10v0a10 10 0 0 1 10 -10"></path>
</g>
<path d="M438.5 40h10"></path>
<g class="terminal ">
<path d="M448.5 40h0"></path>
<path d="M477 40h0"></path>
<rect x="448.5" y="29" width="28.5" height="22" rx="10" ry="10"></rect>
<text x="462.75" y="44">:</text>
</g>
<path d="M477 40h10"></path>
<g>
<path d="M487 40h0"></path>
<path d="M598 40h0"></path>
<path d="M487 40h20"></path>
<g>
<path d="M507 40h71"></path>
</g>
<path d="M578 40h20"></path>
<path d="M487 40a10 10 0 0 1 10 10v0a10 10 0 0 0 10 10"></path>
<g class="terminal ">
<path d="M507 60h0"></path>
<path d="M578 60h0"></path>
<rect x="507" y="49" width="71" height="22" rx="10" ry="10"></rect>
<text x="542.5" y="64">Spaces</text>
</g>
<path d="M578 60a10 10 0 0 0 10 -10v0a10 10 0 0 1 10 -10"></path>
</g>
<path d="M598 40h10"></path>
<g class="non-terminal ">
<path d="M608 40h0"></path>
<path d="M713 40h0"></path>
<rect x="608" y="29" width="105" height="22"></rect>
<text x="660.5" y="44">Expression</text>
</g>
</g>
<path d="M713 40h10"></path>
<path d="M229.5 40a10 10 0 0 0 -10 10v30a10 10 0 0 0 10 10"></path>
<g>
<path d="M229.5 90h106.5"></path>
<path d="M606.5 90h106.5"></path>
<g>
<path d="M336 90h0"></path>
<path d="M447 90h0"></path>
<path d="M336 90h20"></path>
<g>
<path d="M356 90h71"></path>
</g>
<path d="M427 90h20"></path>
<path d="M336 90a10 10 0 0 1 10 10v0a10 10 0 0 0 10 10"></path>
<g class="terminal ">
<path d="M356 110h0"></path>
<path d="M427 110h0"></path>
<rect x="356" y="99" width="71" height="22" rx="10" ry="10"></rect>
<text x="391.5" y="114">Spaces</text>
</g>
<path d="M427 110a10 10 0 0 0 10 -10v0a10 10 0 0 1 10 -10"></path>
</g>
<path d="M447 90h10"></path>
<g class="terminal ">
<path d="M457 90h0"></path>
<path d="M485.5 90h0"></path>
<rect x="457" y="79" width="28.5" height="22" rx="10" ry="10"></rect>
<text x="471.25" y="94">,</text>
</g>
<path d="M485.5 90h10"></path>
<g>
<path d="M495.5 90h0"></path>
<path d="M606.5 90h0"></path>
<path d="M495.5 90h20"></path>
<g>
<path d="M515.5 90h71"></path>
</g>
<path d="M586.5 90h20"></path>
<path d="M495.5 90a10 10 0 0 1 10 10v0a10 10 0 0 0 10 10"></path>
<g class="terminal ">
<path d="M515.5 110h0"></path>
<path d="M586.5 110h0"></path>
<rect x="515.5" y="99" width="71" height="22" rx="10" ry="10"></rect>
<text x="551" y="114">Spaces</text>
</g>
<path d="M586.5 110a10 10 0 0 0 10 -10v0a10 10 0 0 1 10 -10"></path>
</g>
</g>
<path d="M713 90a10 10 0 0 0 10 -10v-30a10 10 0 0 0 -10 -10"></path>
</g>
<path d="M723 40h20"></path>
</g>
<g>
<path d="M743 40h0"></path>
<path d="M854 40h0"></path>
<path d="M743 40h20"></path>
<g>
<path d="M763 40h71"></path>
</g>
<path d="M834 40h20"></path>
<path d="M743 40a10 10 0 0 1 10 10v0a10 10 0 0 0 10 10"></path>
<g class="terminal ">
<path d="M763 60h0"></path>
<path d="M834 60h0"></path>
<rect x="763" y="49" width="71" height="22" rx="10" ry="10"></rect>
<text x="798.5" y="64">Spaces</text>
</g>
<path d="M834 60a10 10 0 0 0 10 -10v0a10 10 0 0 1 10 -10"></path>
</g>
<path d="M854 40h10"></path>
<g class="terminal ">
<path d="M864 40h0"></path>
<path d="M892.5 40h0"></path>
<rect x="864" y="29" width="28.5" height="22" rx="10" ry="10"></rect>
<text x="878.25" y="44">}</text>
</g>
<path d="M892.5 40h10"></path>
<path d="M 902.5 40 h 20 m -10 -10 v 20 m 10 -20 v 20"></path>
</g>
<style>
	svg {
		background-color: hsl(30,20%,95%);
	}
	path {
		stroke-width: 3;
		stroke: black;
		fill: rgba(0,0,0,0);
	}
	text {
		font: bold 14px monospace;
		text-anchor: middle;
		white-space: pre;
	}
	text.diagram-text {
		font-size: 12px;
	}
	text.diagram-arrow {
		font-size: 16px;
	}
	text.label {
		text-anchor: start;
	}
	text.comment {
		font: italic 12px monospace;
	}
	g.non-terminal text {
		/&#42;font-style: italic;&#42;/
	}
	rect {
		stroke-width: 3;
		stroke: black;
		fill: hsl(120,100%,90%);
	}
	rect.group-box {
		stroke: gray;
		stroke-dasharray: 10 5;
		fill: none;
	}
	path.diagram-text {
		stroke-width: 3;
		stroke: black;
		fill: white;
		cursor: help;
	}
	g.diagram-text:hover path.diagram-text {
		fill: #eee;
	}</style>
</svg>
