<svg class="railroad-diagram" width="455" height="62" viewBox="0 0 455 62" xmlns="http://www.w3.org/2000/svg" xmlns:xlink="http://www.w3.org/1999/xlink">
<g transform="translate(.5 .5)">
<g>
<path d="M20 21v20m10 -20v20m-10 -10h20"></path>
</g>
<path d="M40 31h10"></path>
<g class="terminal ">
<path d="M50 31h0"></path>
<path d="M87 31h0"></path>
<rect x="50" y="20" width="37" height="22" rx="10" ry="10"></rect>
<text x="68.5" y="35">//</text>
</g>
<path d="M87 31h10"></path>
<path d="M97 31h10"></path>
<g class="non-terminal ">
<path d="M107 31h0"></path>
<path d="M348 31h0"></path>
<rect x="107" y="20" width="241" height="22"></rect>
<text x="227.5" y="35">String not containing "\n"</text>
</g>
<path d="M348 31h10"></path>
<path d="M358 31h10"></path>
<g class="terminal ">
<path d="M368 31h0"></path>
<path d="M405 31h0"></path>
<rect x="368" y="20" width="37" height="22" rx="10" ry="10"></rect>
<text x="386.5" y="35">\n</text>
</g>
<path d="M405 31h10"></path>
<path d="M 415 31 h 20 m -10 -10 v 20 m 10 -20 v 20"></path>
</g>
<style>
	svg {
		background-color: hsl(30,20%,95%);
	}
	path {
		stroke-width: 3;
		stroke: black;
		fill: rgba(0,0,0,0);
	}
	text {
		font: bold 14px monospace;
		text-anchor: middle;
		white-space: pre;
	}
	text.diagram-text {
		font-size: 12px;
	}
	text.diagram-arrow {
		font-size: 16px;
	}
	text.label {
		text-anchor: start;
	}
	text.comment {
		font: italic 12px monospace;
	}
	g.non-terminal text {
		/&#42;font-style: italic;&#42;/
	}
	rect {
		stroke-width: 3;
		stroke: black;
		fill: hsl(120,100%,90%);
	}
	rect.group-box {
		stroke: gray;
		stroke-dasharray: 10 5;
		fill: none;
	}
	path.diagram-text {
		stroke-width: 3;
		stroke: black;
		fill: white;
		cursor: help;
	}
	g.diagram-text:hover path.diagram-text {
		fill: #eee;
	}</style>
</svg>
