<svg class="railroad-diagram" width="543.5" height="229" viewBox="0 0 543.5 229" xmlns="http://www.w3.org/2000/svg" xmlns:xlink="http://www.w3.org/1999/xlink">
<g transform="translate(.5 .5)">
<g>
<path d="M20 30v20m10 -20v20m-10 -10h20"></path>
</g>
<path d="M40 40h10"></path>
<g class="terminal ">
<path d="M50 40h0"></path>
<path d="M78.5 40h0"></path>
<rect x="50" y="29" width="28.5" height="22" rx="10" ry="10"></rect>
<text x="64.25" y="44">"</text>
</g>
<path d="M78.5 40h10"></path>
<g>
<path d="M88.5 40h0"></path>
<path d="M455 40h0"></path>
<path d="M88.5 40a10 10 0 0 0 10 -10v0a10 10 0 0 1 10 -10"></path>
<g>
<path d="M108.5 20h326.5"></path>
</g>
<path d="M435 20a10 10 0 0 1 10 10v0a10 10 0 0 0 10 10"></path>
<path d="M88.5 40h20"></path>
<g>
<path d="M108.5 40h0"></path>
<path d="M435 40h0"></path>
<path d="M108.5 40h10"></path>
<g>
<path d="M118.5 40h0"></path>
<path d="M425 40h0"></path>
<path d="M118.5 40h20"></path>
<g class="non-terminal ">
<path d="M138.5 40h0"></path>
<path d="M405 40h0"></path>
<rect x="138.5" y="29" width="266.5" height="22"></rect>
<text x="271.75" y="44">String not containing " or \ </text>
</g>
<path d="M405 40h20"></path>
<path d="M118.5 40a10 10 0 0 1 10 10v70a10 10 0 0 0 10 10"></path>
<g>
<path d="M138.5 130h79.75"></path>
<path d="M325.25 130h79.75"></path>
<g class="terminal ">
<path d="M218.25 130h0"></path>
<path d="M246.75 130h0"></path>
<rect x="218.25" y="119" width="28.5" height="22" rx="10" ry="10"></rect>
<text x="232.5" y="134">\</text>
</g>
<path d="M246.75 130h10"></path>
<g>
<path d="M256.75 130h0"></path>
<path d="M325.25 130h0"></path>
<path d="M256.75 130a10 10 0 0 0 10 -10v-10a10 10 0 0 1 10 -10"></path>
<g class="terminal ">
<path d="M276.75 100h0"></path>
<path d="M305.25 100h0"></path>
<rect x="276.75" y="89" width="28.5" height="22" rx="10" ry="10"></rect>
<text x="291" y="104">\</text>
</g>
<path d="M305.25 100a10 10 0 0 1 10 10v10a10 10 0 0 0 10 10"></path>
<path d="M256.75 130a10 10 0 0 0 10 -10v-40a10 10 0 0 1 10 -10"></path>
<g class="terminal ">
<path d="M276.75 70h0"></path>
<path d="M305.25 70h0"></path>
<rect x="276.75" y="59" width="28.5" height="22" rx="10" ry="10"></rect>
<text x="291" y="74">"</text>
</g>
<path d="M305.25 70a10 10 0 0 1 10 10v40a10 10 0 0 0 10 10"></path>
<path d="M256.75 130h20"></path>
<g class="terminal ">
<path d="M276.75 130h0"></path>
<path d="M305.25 130h0"></path>
<rect x="276.75" y="119" width="28.5" height="22" rx="10" ry="10"></rect>
<text x="291" y="134">n</text>
</g>
<path d="M305.25 130h20"></path>
<path d="M256.75 130a10 10 0 0 1 10 10v10a10 10 0 0 0 10 10"></path>
<g class="terminal ">
<path d="M276.75 160h0"></path>
<path d="M305.25 160h0"></path>
<rect x="276.75" y="149" width="28.5" height="22" rx="10" ry="10"></rect>
<text x="291" y="164">t</text>
</g>
<path d="M305.25 160a10 10 0 0 0 10 -10v-10a10 10 0 0 1 10 -10"></path>
<path d="M256.75 130a10 10 0 0 1 10 10v40a10 10 0 0 0 10 10"></path>
<g class="terminal ">
<path d="M276.75 190h0"></path>
<path d="M305.25 190h0"></path>
<rect x="276.75" y="179" width="28.5" height="22" rx="10" ry="10"></rect>
<text x="291" y="194">r</text>
</g>
<path d="M305.25 190a10 10 0 0 0 10 -10v-40a10 10 0 0 1 10 -10"></path>
</g>
</g>
<path d="M405 130a10 10 0 0 0 10 -10v-70a10 10 0 0 1 10 -10"></path>
</g>
<path d="M425 40h10"></path>
<path d="M118.5 40a10 10 0 0 0 -10 10v149a10 10 0 0 0 10 10"></path>
<g>
<path d="M118.5 209h306.5"></path>
</g>
<path d="M425 209a10 10 0 0 0 10 -10v-149a10 10 0 0 0 -10 -10"></path>
</g>
<path d="M435 40h20"></path>
</g>
<path d="M455 40h10"></path>
<g class="terminal ">
<path d="M465 40h0"></path>
<path d="M493.5 40h0"></path>
<rect x="465" y="29" width="28.5" height="22" rx="10" ry="10"></rect>
<text x="479.25" y="44">"</text>
</g>
<path d="M493.5 40h10"></path>
<path d="M 503.5 40 h 20 m -10 -10 v 20 m 10 -20 v 20"></path>
</g>
<style>
	svg {
		background-color: hsl(30,20%,95%);
	}
	path {
		stroke-width: 3;
		stroke: black;
		fill: rgba(0,0,0,0);
	}
	text {
		font: bold 14px monospace;
		text-anchor: middle;
		white-space: pre;
	}
	text.diagram-text {
		font-size: 12px;
	}
	text.diagram-arrow {
		font-size: 16px;
	}
	text.label {
		text-anchor: start;
	}
	text.comment {
		font: italic 12px monospace;
	}
	g.non-terminal text {
		/&#42;font-style: italic;&#42;/
	}
	rect {
		stroke-width: 3;
		stroke: black;
		fill: hsl(120,100%,90%);
	}
	rect.group-box {
		stroke: gray;
		stroke-dasharray: 10 5;
		fill: none;
	}
	path.diagram-text {
		stroke-width: 3;
		stroke: black;
		fill: white;
		cursor: help;
	}
	g.diagram-text:hover path.diagram-text {
		fill: #eee;
	}</style>
</svg>
